<svg width="68" height="64" viewBox="0 0 68 64" fill="none" xmlns="http://www.w3.org/2000/svg">
<path d="M11.1088 44.2014V35.2762C11.1088 34.8781 11.4298 34.5629 11.8166 34.5629H19.1832C19.5124 34.5629 19.7758 34.8283 19.7758 35.1601V58.0454C19.7758 58.4436 19.4548 58.7588 19.068 58.7588H11.8166C11.4215 58.7588 11.1088 58.4353 11.1088 58.0454V48.1746" stroke="black" stroke-width="2.88871" stroke-miterlimit="10" stroke-linecap="round"/>
<path d="M14.9941 39.8214V43.2472" stroke="black" stroke-width="2.88871" stroke-miterlimit="10" stroke-linecap="round"/>
<path d="M29.1843 30.2246L30.5237 30.7651L30.525 30.7619L29.1843 30.2246ZM30.065 25.0984L31.5083 25.1548L31.5084 25.1495L30.065 25.0984ZM30.4189 23.7712L31.7276 24.3823L31.7315 24.3741L31.7352 24.3659L30.4189 23.7712ZM34.1475 22.8422L35.0821 21.7409L35.0763 21.7361L34.1475 22.8422ZM34.8142 23.8459L36.2033 23.4504L36.2016 23.4443L34.8142 23.8459ZM34.3865 27.8807C34.5214 28.6669 35.268 29.195 36.0542 29.0602C36.8405 28.9253 37.3685 28.1786 37.2337 27.3924L34.3865 27.8807ZM19.7765 38.2705C20.5921 39.4625 20.5922 39.4625 20.5923 39.4624C20.5924 39.4623 20.5926 39.4622 20.5928 39.4621C20.5931 39.4618 20.5936 39.4615 20.5942 39.4611C20.5955 39.4602 20.5972 39.459 20.5995 39.4575C20.604 39.4544 20.6105 39.4499 20.619 39.4441C20.636 39.4324 20.6608 39.4153 20.693 39.3931C20.7573 39.3487 20.8511 39.2837 20.9703 39.2005C21.2087 39.0342 21.5494 38.7948 21.9605 38.5008C22.7817 37.9134 23.8892 37.1048 25.028 36.2233C26.1625 35.3453 27.349 34.3788 28.3189 33.4777C28.8034 33.0276 29.2523 32.5768 29.6195 32.1481C29.9676 31.7416 30.3222 31.2643 30.5237 30.7651L27.8449 29.684C27.8221 29.7406 27.7145 29.9315 27.4255 30.269C27.1555 30.5842 26.7924 30.953 26.3527 31.3614C25.4746 32.1773 24.3653 33.0834 23.2599 33.939C22.1589 34.7911 21.0826 35.5771 20.2801 36.1511C19.8793 36.4377 19.548 36.6706 19.3176 36.8314C19.2023 36.9117 19.1124 36.974 19.0516 37.016C19.0212 37.037 18.9982 37.0529 18.9829 37.0634C18.9752 37.0686 18.9695 37.0725 18.9659 37.0751C18.964 37.0763 18.9627 37.0772 18.9618 37.0778C18.9614 37.0781 18.9611 37.0783 18.961 37.0784C18.9609 37.0784 18.9609 37.0785 18.9608 37.0785C18.9609 37.0785 18.9609 37.0784 19.7765 38.2705ZM30.525 30.7619C31.3027 28.8216 31.4673 26.2037 31.5083 25.1548L28.6217 25.042C28.5804 26.1 28.4157 28.2598 27.8436 29.6872L30.525 30.7619ZM31.5084 25.1495C31.5157 24.9439 31.5792 24.7003 31.7276 24.3823L29.1102 23.1601C28.8636 23.6882 28.6472 24.3238 28.6216 25.0472L31.5084 25.1495ZM31.7352 24.3659C31.8358 24.1431 32.1011 23.8473 32.3888 23.7257C32.509 23.6748 32.6112 23.663 32.7075 23.6774C32.8019 23.6916 32.9745 23.7433 33.2186 23.9482L35.0763 21.7361C33.8201 20.6811 32.4269 20.5733 31.264 21.065C30.2224 21.5053 29.4629 22.3791 29.1027 23.1766L31.7352 24.3659ZM33.2129 23.9434C33.3385 24.05 33.4005 24.1566 33.4267 24.2474L36.2016 23.4443C35.9974 22.7389 35.582 22.1652 35.082 21.741L33.2129 23.9434ZM33.425 24.2413C33.7274 25.3037 34.2882 27.3074 34.3865 27.8807L37.2337 27.3924C37.1015 26.622 36.4771 24.412 36.2033 23.4504L33.425 24.2413Z" fill="black"/>
<path d="M35.802 31.5433C35.802 31.5433 35.2259 35.3589 34.7485 36.2548C34.2793 37.1589 36.905 42.7662 28.9128 44.6242" stroke="black" stroke-width="2.88871" stroke-miterlimit="10" stroke-linecap="round"/>
<path d="M47.6865 53.06H41.5134C40.1389 53.06 39.0277 51.9402 39.0277 50.555V50.3808C39.0277 48.9956 40.1389 47.8758 41.5134 47.8758H47.6865C49.0611 47.8758 50.1722 48.9956 50.1722 50.3808V50.555C50.164 51.9402 49.0528 53.06 47.6865 53.06Z" stroke="black" stroke-width="2.88871" stroke-miterlimit="10"/>
<path d="M47.0043 58.2527H42.0741C40.9135 58.2527 39.9752 57.3071 39.9752 56.1376V55.8473C39.9752 54.6777 40.9135 53.7321 42.0741 53.7321H47.0043C48.1649 53.7321 49.1032 54.6777 49.1032 55.8473V56.1376C49.1032 57.2988 48.1649 58.2527 47.0043 58.2527Z" stroke="black" stroke-width="2.88871" stroke-miterlimit="10"/>
<path d="M47.6865 42.0361H41.5134C40.1389 42.0361 39.0277 40.8499 39.0277 39.3817V39.1992C39.0277 38.4859 39.2911 37.8306 39.7273 37.3578C40.18 36.8601 40.8138 36.5449 41.5134 36.5449H47.6865C49.0611 36.5449 50.1722 37.7311 50.1722 39.1992V39.3817C50.164 40.8416 49.0528 42.0361 47.6865 42.0361Z" stroke="black" stroke-width="2.88871" stroke-miterlimit="10"/>
<path d="M48.6255 47.2123H42.4524C41.0778 47.2123 39.9667 46.0925 39.9667 44.7072V44.533C39.9667 43.1478 41.0778 42.028 42.4524 42.028H48.6255C50 42.028 51.1112 43.1478 51.1112 44.533V44.7072C51.1112 46.0925 50 47.2123 48.6255 47.2123Z" stroke="black" stroke-width="2.88871" stroke-miterlimit="10"/>
<path d="M25.2758 58.1617L26.1343 57.0001L26.1259 56.994L25.2758 58.1617ZM26.5105 58.6926L26.7258 57.2644L26.7237 57.264L26.5105 58.6926ZM31.957 60.1889C32.7467 60.0765 33.2958 59.3452 33.1834 58.5554C33.071 57.7657 32.3397 57.2166 31.55 57.329L31.957 60.1889ZM20.2468 56.2041C20.2122 57.6481 20.2117 57.6481 20.2111 57.648C20.211 57.648 20.2105 57.648 20.2101 57.648C20.2095 57.648 20.2089 57.648 20.2083 57.648C20.2072 57.6479 20.2062 57.6479 20.2053 57.6479C20.2036 57.6478 20.2024 57.6478 20.2018 57.6478C20.2006 57.6477 20.2016 57.6478 20.2048 57.6479C20.2111 57.6482 20.2259 57.649 20.2488 57.6507C20.2946 57.6541 20.3723 57.6611 20.4778 57.675C20.6889 57.7027 21.0091 57.7575 21.4056 57.8648C22.1991 58.0795 23.2885 58.5015 24.4258 59.3294L26.1259 56.994C24.654 55.9224 23.2289 55.3656 22.1602 55.0764C21.6256 54.9317 21.1777 54.8533 20.8536 54.8108C20.6914 54.7895 20.5597 54.7771 20.463 54.77C20.4146 54.7664 20.3749 54.7641 20.3445 54.7626C20.3293 54.7618 20.3164 54.7613 20.3059 54.7609C20.3006 54.7608 20.2959 54.7606 20.2919 54.7605C20.2898 54.7604 20.2879 54.7604 20.2862 54.7603C20.2853 54.7603 20.2845 54.7603 20.2837 54.7602C20.2833 54.7602 20.2828 54.7602 20.2826 54.7602C20.282 54.7602 20.2815 54.7602 20.2468 56.2041ZM24.4174 59.3233C24.9463 59.7141 25.5832 60.0145 26.2972 60.1211L26.7237 57.264C26.5488 57.2379 26.3462 57.1567 26.1343 57.0001L24.4174 59.3233ZM26.2951 60.1208C27.4049 60.2881 29.6028 60.5239 31.957 60.1889L31.55 57.329C29.5912 57.6078 27.7067 57.4122 26.7258 57.2644L26.2951 60.1208Z" fill="black"/>
<path d="M35.1929 36.3625H47.8272C47.8272 36.3625 49.498 36.1634 50.0659 38.4445" stroke="black" stroke-width="2.88871" stroke-miterlimit="10"/>
<path d="M8.31922 30.7221L6.03104 29.4115C5.80058 29.2788 5.5125 29.2705 5.27381 29.3866L2.90334 30.5479C2.29427 30.8465 1.6111 30.3073 1.7428 29.6438L2.26957 27.0392C2.32718 26.7738 2.24488 26.5 2.05557 26.301L0.228332 24.3849C-0.240824 23.8955 0.0554861 23.0743 0.730412 22.9913L3.3478 22.6927C3.61942 22.6595 3.84989 22.5019 3.98158 22.2614L5.22443 19.9223C5.54543 19.3168 6.40966 19.3499 6.68951 19.972L7.77598 22.3858C7.89121 22.6347 8.11344 22.8089 8.37683 22.8586L10.9695 23.3231C11.6362 23.4393 11.8749 24.2853 11.3811 24.7415L9.43861 26.5332C9.24107 26.7157 9.14229 26.9894 9.18344 27.2549L9.5456 29.8843C9.62791 30.5645 8.90361 31.0622 8.31922 30.7221Z" fill="url(#paint0_linear_235_2573)"/>
<path d="M19.9584 20.9093L17.6702 19.5987C17.4398 19.466 17.1517 19.4577 16.913 19.5738L14.5425 20.7351C13.9334 21.0337 13.2503 20.4946 13.382 19.831L13.9087 17.2264C13.9663 16.961 13.884 16.6873 13.6947 16.4882L11.8675 14.5721C11.3983 14.0827 11.6946 13.2615 12.3696 13.1786L14.987 12.8799C15.2586 12.8468 15.489 12.6892 15.6207 12.4486L16.8636 10.1095C17.1846 9.50397 18.0488 9.53715 18.3287 10.1593L19.4151 12.573C19.5304 12.8219 19.7526 12.9961 20.016 13.0458L22.6087 13.5104C23.2754 13.6265 23.5141 14.4725 23.0202 14.9288L21.0778 16.7204C20.8802 16.9029 20.7814 17.1766 20.8226 17.4421L21.1848 20.0715C21.2671 20.7517 20.551 21.2411 19.9584 20.9093Z" fill="url(#paint1_linear_235_2573)"/>
<path d="M34.2531 15.2358L31.9649 13.9252C31.7344 13.7925 31.4464 13.7842 31.2077 13.9003L28.8372 15.0616C28.2281 15.3602 27.5449 14.8211 27.6766 14.1575L28.2034 11.5529C28.261 11.2875 28.1787 11.0138 27.9894 10.8147L26.1622 8.89859C25.693 8.4092 25.9893 7.58802 26.6643 7.50507L29.2816 7.20646C29.5533 7.17328 29.7837 7.01568 29.9154 6.77513L31.1583 4.436C31.4793 3.83048 32.3435 3.86366 32.6234 4.48577L33.7098 6.89955C33.825 7.14839 34.0473 7.32258 34.3107 7.37235L36.9034 7.83686C37.5701 7.95299 37.8088 8.79905 37.3149 9.25527L35.3724 11.0469C35.1749 11.2294 35.0761 11.5032 35.1173 11.7686L35.4795 14.398C35.5618 15.0782 34.8374 15.5759 34.2531 15.2358Z" fill="url(#paint2_linear_235_2573)"/>
<path d="M47.038 20.9093L44.7498 19.5987C44.5193 19.466 44.2313 19.4577 43.9926 19.5738L41.6221 20.7351C41.013 21.0337 40.3299 20.4946 40.4615 19.831L40.9883 17.2264C41.0459 16.961 40.9636 16.6873 40.7743 16.4882L38.9471 14.5721C38.4779 14.0827 38.7742 13.2615 39.4492 13.1786L42.0666 12.8799C42.3382 12.8468 42.5686 12.6892 42.7003 12.4486L43.9432 10.1095C44.2642 9.50397 45.1284 9.53715 45.4083 10.1593L46.4947 12.573C46.61 12.8219 46.8322 12.9961 47.0956 13.0458L49.6883 13.5104C50.355 13.6265 50.5937 14.4725 50.0998 14.9288L48.1574 16.7204C47.9598 16.9029 47.8611 17.1766 47.9022 17.4421L48.2644 20.0715C48.3467 20.7517 47.6306 21.2411 47.038 20.9093Z" fill="url(#paint3_linear_235_2573)"/>
<path d="M58.6753 30.7221L56.3871 29.4115C56.1567 29.2788 55.8686 29.2705 55.6299 29.3866L53.2594 30.5479C52.6503 30.8465 51.9672 30.3073 52.0989 29.6438L52.6256 27.0392C52.6833 26.7738 52.601 26.5 52.4117 26.301L50.5844 24.3849C50.1153 23.8955 50.4116 23.0743 51.0865 22.9913L53.7039 22.6927C53.9755 22.6595 54.206 22.5019 54.3377 22.2614L55.5805 19.9223C55.9015 19.3168 56.7658 19.3499 57.0456 19.972L58.1321 22.3858C58.2473 22.6347 58.4695 22.8089 58.7329 22.8586L61.3256 23.3231C61.9923 23.4393 62.231 24.2853 61.7372 24.7415L59.7947 26.5332C59.5971 26.7157 59.4984 26.9894 59.5395 27.2549L59.9017 29.8843C59.984 30.5645 59.2679 31.0622 58.6753 30.7221Z" fill="url(#paint4_linear_235_2573)"/>
<path d="M36.0332 56.8078C35.2355 56.8078 34.5888 57.4545 34.5888 58.2522C34.5888 59.0499 35.2355 59.6966 36.0332 59.6966V56.8078ZM47.6222 56.8078H36.0332V59.6966H47.6222V56.8078Z" fill="black"/>
<defs>
<linearGradient id="paint0_linear_235_2573" x1="5.82193" y1="19.4863" x2="5.82193" y2="30.8319" gradientUnits="userSpaceOnUse">
<stop stop-color="#FECF17"/>
<stop offset="1" stop-color="#FF9908"/>
</linearGradient>
<linearGradient id="paint1_linear_235_2573" x1="17.4611" y1="9.67349" x2="17.4611" y2="21.0158" gradientUnits="userSpaceOnUse">
<stop stop-color="#FECF17"/>
<stop offset="1" stop-color="#FF9908"/>
</linearGradient>
<linearGradient id="paint2_linear_235_2573" x1="31.7558" y1="4" x2="31.7558" y2="15.3456" gradientUnits="userSpaceOnUse">
<stop stop-color="#FECF17"/>
<stop offset="1" stop-color="#FF9908"/>
</linearGradient>
<linearGradient id="paint3_linear_235_2573" x1="44.5407" y1="9.67349" x2="44.5407" y2="21.0158" gradientUnits="userSpaceOnUse">
<stop stop-color="#FECF17"/>
<stop offset="1" stop-color="#FF9908"/>
</linearGradient>
<linearGradient id="paint4_linear_235_2573" x1="56.178" y1="19.4863" x2="56.178" y2="30.8319" gradientUnits="userSpaceOnUse">
<stop stop-color="#FECF17"/>
<stop offset="1" stop-color="#FF9908"/>
</linearGradient>
</defs>
</svg>
