<svg width="111" height="34" viewBox="0 0 111 34" fill="none" xmlns="http://www.w3.org/2000/svg">
<g clip-path="url(#clip0_244_1699)">
<g clip-path="url(#clip1_244_1699)">
<g clip-path="url(#clip2_244_1699)">
<path d="M30.6749 33.1726L18.4077 21.8836L5.9028 32.9145L4.61903 31.4609C2.2608 28.7894 0.727724 25.4915 0.205467 21.9665C-0.31679 18.4415 0.194175 14.8407 1.67648 11.6002C3.15879 8.35963 5.54885 5.61838 8.55721 3.7084C11.5656 1.79842 15.0632 0.801634 18.6264 0.83877C22.1897 0.875905 25.6658 1.94537 28.6337 3.91763C31.6016 5.8899 33.934 8.68036 35.3484 11.9511C36.7629 15.2218 37.1987 18.8325 36.6031 22.3458C36.0075 25.8591 34.406 29.1244 31.9926 31.7462L30.6749 33.1726ZM18.4485 16.6466L30.3556 27.6028C31.8759 25.4321 32.7747 22.8876 32.9551 20.2436C33.1355 17.5997 32.5907 14.9566 31.3795 12.5995C30.1682 10.2424 28.3364 8.26073 26.0817 6.86814C23.827 5.47555 21.2349 4.72491 18.5849 4.69719C15.935 4.66946 13.3277 5.36569 11.0444 6.71079C8.76101 8.0559 6.88818 9.99884 5.62787 12.3301C4.36755 14.6613 3.76757 17.2924 3.89263 19.9395C4.01769 22.5867 4.86304 25.1495 6.33752 27.3515L18.4485 16.6466Z" fill="#19BB4F"/>
<path d="M27.5641 17.9576H23.6516V25.7757H27.5641V17.9576Z" fill="#19BB4F"/>
<path d="M54.5094 4.0128C56.6151 4.0128 58.8498 5.14714 59.332 7.72827H57.1652C56.9694 7.19357 56.6036 6.73789 56.1238 6.43114C55.6441 6.1244 55.0769 5.98353 54.5094 6.03016C52.6618 6.03016 51.4188 7.38865 51.4188 9.35846C51.3929 9.77889 51.4532 10.2002 51.596 10.5965C51.7388 10.9927 51.9611 11.3556 52.2493 11.6629C52.5374 11.9701 52.8854 12.2152 53.2717 12.3831C53.658 12.551 54.0746 12.6382 54.4958 12.6392C55.0965 12.6889 55.6959 12.5285 56.1914 12.1853C56.687 11.8421 57.048 11.3375 57.2128 10.7577H59.3592C58.9109 13.5154 56.6898 14.6702 54.5094 14.6702C53.8027 14.6997 53.0976 14.5827 52.4383 14.3266C51.779 14.0704 51.1798 13.6807 50.6784 13.1818C50.177 12.683 49.7842 12.0858 49.5247 11.4278C49.2652 10.7698 49.1446 10.0653 49.1705 9.35846C49.1388 8.64858 49.2551 7.93986 49.512 7.27737C49.769 6.61488 50.161 6.0131 50.6632 5.51032C51.1653 5.00754 51.7666 4.61476 52.4287 4.35694C53.0909 4.09913 53.7995 3.98193 54.5094 4.0128Z" fill="black"/>
<path d="M64.2634 14.7108C63.7601 14.7326 63.2576 14.6502 62.7877 14.4685C62.3178 14.2869 61.8904 14.0101 61.5326 13.6554C61.1748 13.3008 60.8941 12.876 60.7083 12.4077C60.5225 11.9394 60.4355 11.4377 60.4528 10.9342C60.4528 9.92357 60.8543 8.95433 61.5689 8.23972C62.2836 7.5251 63.2528 7.12363 64.2634 7.12363C65.274 7.12363 66.2433 7.5251 66.9579 8.23972C67.6725 8.95433 68.074 9.92357 68.074 10.9342C68.0955 11.4388 68.0113 11.9423 67.827 12.4125C67.6426 12.8827 67.3621 13.3092 67.0034 13.6647C66.6447 14.0202 66.2157 14.2969 65.7438 14.477C65.272 14.6572 64.7678 14.7368 64.2634 14.7108ZM64.2227 12.8904C64.4706 12.8898 64.7157 12.8373 64.942 12.7361C65.1684 12.6349 65.371 12.4874 65.5368 12.303C65.7026 12.1187 65.8278 11.9016 65.9045 11.6658C65.9812 11.43 66.0076 11.1808 65.9819 10.9342C66.0105 10.6904 65.9875 10.4433 65.9145 10.2089C65.8414 9.97453 65.72 9.75812 65.5579 9.5737C65.3959 9.38927 65.197 9.24093 64.974 9.13831C64.751 9.03568 64.5089 8.98106 64.2634 8.97797C64.0143 8.97663 63.7678 9.0278 63.5398 9.12813C63.3118 9.22846 63.1075 9.37571 62.9403 9.56028C62.773 9.74485 62.6465 9.96259 62.569 10.1993C62.4915 10.436 62.4648 10.6864 62.4906 10.9342C62.4641 11.1787 62.4889 11.4261 62.5636 11.6605C62.6382 11.8949 62.761 12.1111 62.9241 12.2953C63.0872 12.4794 63.2869 12.6275 63.5105 12.73C63.7341 12.8325 63.9767 12.8871 64.2227 12.8904Z" fill="black"/>
<path d="M79.0844 14.5615V10.3978C79.1252 9.44683 78.6361 8.86268 77.9161 8.87627C77.7261 8.88541 77.5399 8.93321 77.369 9.01675C77.198 9.10029 77.0459 9.21781 76.922 9.36212C76.798 9.50644 76.7048 9.67452 76.648 9.85609C76.5911 10.0377 76.572 10.2289 76.5916 10.4182V14.5615H74.5538V10.4182C74.5538 9.44683 74.0716 8.86268 73.3108 8.87627C73.1127 8.88299 72.9179 8.92981 72.7383 9.0139C72.5588 9.09799 72.3981 9.21761 72.266 9.36553C72.134 9.51345 72.0333 9.6866 71.97 9.87452C71.9068 10.0624 71.8823 10.2612 71.898 10.4589V14.5344H69.8195V9.5623C69.8195 8.88306 69.8195 8.62495 69.1403 8.62495V7.35476C70.0844 7.08985 71.735 6.92683 71.735 8.35325C71.9797 7.97218 72.3229 7.66434 72.7283 7.46228C73.1336 7.26021 73.586 7.17143 74.0376 7.20532C75.2874 7.20532 75.8852 7.64004 76.2316 8.52306C76.4868 8.09635 76.8541 7.74785 77.2937 7.5155C77.7332 7.28315 78.2281 7.17586 78.7244 7.20532C80.7621 7.20532 81.2444 8.65212 81.1969 10.3978V14.5615H79.0844Z" fill="black"/>
<path d="M83.717 8.86259H82.3585V7.38862H83.717V6.47843C83.717 3.5373 85.9857 3.1773 88.3427 3.8973L88.1321 5.44598C87.0589 5.04523 85.7004 4.98409 85.7004 6.51919V7.38862H87.9691V8.86259H85.7004V14.5615H83.6627L83.717 8.86259Z" fill="black"/>
<path d="M92.4657 14.7107C91.9601 14.7364 91.4547 14.6568 90.9815 14.4769C90.5084 14.297 90.0777 14.0208 89.7169 13.6657C89.3561 13.3106 89.073 12.8845 88.8855 12.4142C88.6981 11.944 88.6103 11.44 88.6279 10.934C88.6695 9.95037 89.0894 9.02077 89.8002 8.33943C90.5109 7.65808 91.4574 7.27768 92.4419 7.27768C93.4265 7.27768 94.3729 7.65808 95.0837 8.33943C95.7944 9.02077 96.2143 9.95037 96.2559 10.934C96.2771 11.4368 96.1935 11.9385 96.0104 12.4073C95.8273 12.876 95.5486 13.3015 95.1921 13.6567C94.8356 14.0119 94.4092 14.289 93.9398 14.4705C93.4704 14.6519 92.9684 14.7337 92.4657 14.7107ZM92.4181 12.8903C92.6664 12.8908 92.912 12.8389 93.1388 12.7381C93.3657 12.6373 93.5687 12.4897 93.7347 12.3052C93.9008 12.1206 94.026 11.903 94.1022 11.6668C94.1785 11.4305 94.2041 11.1809 94.1774 10.934C94.2059 10.6908 94.1831 10.4443 94.1105 10.2104C94.0378 9.97645 93.917 9.76036 93.7557 9.57604C93.5944 9.39172 93.3963 9.24325 93.1741 9.14021C92.9519 9.03717 92.7106 8.98185 92.4657 8.97782C92.2191 8.97772 91.9751 9.02908 91.7495 9.1286C91.5239 9.22813 91.3215 9.37364 91.1553 9.55583C90.989 9.73802 90.8627 9.95289 90.7842 10.1867C90.7058 10.4205 90.677 10.6681 90.6996 10.9137C90.6702 11.1587 90.6924 11.4072 90.7648 11.6431C90.8373 11.879 90.9584 12.0971 91.1203 12.2833C91.2822 12.4695 91.4813 12.6198 91.7049 12.7243C91.9284 12.8289 92.1714 12.8854 92.4181 12.8903Z" fill="black"/>
<path d="M102.023 7.1441C102.574 7.12479 103.117 7.28968 103.565 7.61278L103.103 9.35844C102.703 9.08614 102.227 8.94815 101.744 8.96448C101.518 8.95357 101.293 8.99037 101.082 9.07247C100.871 9.15457 100.68 9.28013 100.521 9.44097C100.362 9.60182 100.239 9.79434 100.16 10.006C100.08 10.2176 100.046 10.4437 100.06 10.6694V14.5615H98.0219V9.4875C98.0219 8.88976 97.9607 8.50259 97.3019 8.61127V7.3275C98.3479 7.08976 99.883 7.08976 100.019 8.37354C100.185 7.98674 100.467 7.66088 100.826 7.44073C101.184 7.22058 101.603 7.11696 102.023 7.1441Z" fill="black"/>
<path d="M107.409 7.38876H109.752V8.97819H107.409V11.7699C107.409 13.2642 108.652 13.3389 109.841 12.9042L110.038 14.4869C107.558 15.1661 105.364 14.7722 105.364 11.8174V8.97819L104.006 8.84234V7.38876H105.507L105.731 5.14725H107.402L107.409 7.38876Z" fill="black"/>
<path d="M54.5094 18.936C56.615 18.936 58.8498 20.0635 59.332 22.6514H57.1652C56.9706 22.1155 56.6052 21.6583 56.1254 21.3502C55.6455 21.0422 55.0777 20.9004 54.5094 20.9465C52.6618 20.9465 51.4188 22.305 51.4188 24.2748C51.3929 24.6953 51.4532 25.1165 51.596 25.5128C51.7388 25.9091 51.9611 26.272 52.2493 26.5793C52.5374 26.8865 52.8854 27.1316 53.2717 27.2995C53.658 27.4674 54.0746 27.5545 54.4958 27.5556C55.0965 27.6053 55.6959 27.4449 56.1914 27.1017C56.687 26.7585 57.048 26.2539 57.2128 25.6741H59.3592C58.9109 28.4386 56.6898 29.5865 54.5094 29.5865C53.8024 29.6171 53.0968 29.5008 52.4371 29.245C51.7773 28.9892 51.1777 28.5995 50.6761 28.1005C50.1745 27.6014 49.7817 27.0038 49.5226 26.3453C49.2635 25.6869 49.1436 24.9819 49.1705 24.2748C49.1376 23.565 49.2532 22.8561 49.5099 22.1935C49.7665 21.5308 50.1586 20.929 50.6611 20.4266C51.1636 19.9241 51.7654 19.532 52.428 19.2753C53.0906 19.0186 53.7995 18.9031 54.5094 18.936Z" fill="black"/>
<path d="M62.864 18.5623V26.754C62.864 27.8544 63.2987 28.0786 64.2972 27.9156L64.3719 29.4846C62.1508 29.8854 60.8059 29.3352 60.8059 26.7676V18.5623H62.864Z" fill="black"/>
<path d="M67.5917 29.6133C66.9479 29.6601 66.3118 29.4497 65.8228 29.0283C65.3339 28.6068 65.032 28.0087 64.9834 27.365C64.9086 25.599 66.1788 24.7635 67.7751 24.7635C68.4423 24.7415 69.1026 24.9036 69.6837 25.2322V24.7363C69.6837 23.8533 68.6105 23.7039 67.8905 23.7039C67.1855 23.6744 66.4844 23.8239 65.8528 24.1386L65.5811 22.6511C66.4371 22.2766 67.3639 22.0912 68.2981 22.1077C70.1456 22.1077 71.6943 22.719 71.6943 24.8246V27.4194C71.6943 28.0307 71.6943 28.3907 72.3736 28.3431V29.5114C71.2868 29.7492 70.0913 29.688 70.0913 28.4043C69.6498 29.2737 68.5154 29.6133 67.5917 29.6133ZM69.6294 26.5296C69.1848 26.2481 68.668 26.1018 68.1419 26.1084C67.4626 26.156 66.9464 26.5296 67.0211 27.2292C67.0533 27.4614 67.1751 27.6717 67.3604 27.8152C67.5458 27.9586 67.78 28.0238 68.0128 27.9967C68.692 27.9967 69.5615 27.6571 69.6362 26.8963L69.6294 26.5296Z" fill="black"/>
<path d="M75.3962 27.3178C75.3962 27.9156 75.9735 28.1805 76.5713 28.1669C77.169 28.1533 77.7939 27.9903 77.8143 27.345C77.8347 26.6997 77.2913 26.7065 76.7818 26.6658C75.3351 26.4688 73.4535 26.2786 73.4535 24.5329C73.4535 22.9163 74.812 22.1556 76.5441 22.1556C78.2762 22.1556 79.7366 22.9299 79.6618 24.4582H77.692C77.692 23.9352 77.169 23.7246 76.5713 23.7246C75.9735 23.7246 75.4709 23.9895 75.4709 24.4718C75.4709 24.9541 76.0347 25.0831 76.4966 25.1511C78.1064 25.348 79.9471 25.4839 79.8928 27.4061C79.852 29.1246 78.283 29.7631 76.6528 29.7631C75.0226 29.7631 73.3585 29.1994 73.2905 27.3178H75.3962Z" fill="black"/>
<path d="M83.0037 27.3178C83.0037 27.9156 83.5878 28.1805 84.1856 28.1669C84.7833 28.1533 85.4082 27.9903 85.4218 27.345C85.4354 26.6997 84.8988 26.7065 84.3894 26.6658C82.9426 26.4688 81.0611 26.2786 81.0611 24.5329C81.0611 22.9163 82.4195 22.1556 84.1516 22.1556C85.8837 22.1556 87.3441 22.9299 87.2694 24.4582H85.2995C85.2995 23.9352 84.7765 23.7246 84.1856 23.7246C83.5946 23.7246 83.0784 23.9895 83.0784 24.4718C83.0784 24.9541 83.6422 25.0831 84.1109 25.1511C85.7207 25.348 87.5546 25.4839 87.5071 27.4061C87.4663 29.1246 85.8973 29.7631 84.2739 29.7631C82.6505 29.7631 80.9863 29.2877 80.9116 27.379L83.0037 27.3178Z" fill="black"/>
<path d="M88.8521 28.5744C88.8301 28.3248 88.8842 28.0744 89.0071 27.856C89.13 27.6377 89.316 27.4616 89.5408 27.3508C89.7655 27.24 90.0185 27.1998 90.2665 27.2353C90.5146 27.2708 90.7461 27.3805 90.9307 27.5499C91.1153 27.7193 91.2444 27.9405 91.3011 28.1846C91.3578 28.4287 91.3394 28.6842 91.2483 28.9176C91.1572 29.151 90.9977 29.3515 90.7907 29.4927C90.5837 29.6338 90.3389 29.7092 90.0883 29.7088C89.9314 29.7209 89.7737 29.7006 89.625 29.6492C89.4763 29.5978 89.3398 29.5164 89.2238 29.41C89.1079 29.3037 89.0151 29.1746 88.9511 29.0309C88.8872 28.8871 88.8534 28.7317 88.8521 28.5744Z" fill="black"/>
<path d="M97.4038 22.0669C97.9521 22.0496 98.4911 22.2118 98.9389 22.5288L98.4906 24.2744C98.0905 24.0041 97.6146 23.8684 97.1321 23.8872C96.9068 23.8764 96.6818 23.913 96.4716 23.9947C96.2615 24.0764 96.0708 24.2014 95.912 24.3615C95.7532 24.5216 95.6297 24.7132 95.5497 24.9241C95.4697 25.1349 95.4349 25.3602 95.4476 25.5854V29.4842H93.4098V24.4103C93.4098 23.8125 93.3487 23.4254 92.6898 23.5272V22.2435C93.7359 22.0057 95.271 22.0057 95.4068 23.2895C95.5736 22.9051 95.8548 22.5815 96.2121 22.3627C96.5695 22.1439 96.9856 22.0406 97.4038 22.0669Z" fill="black"/>
<path d="M106.872 22.2914V27.3178C106.872 27.997 106.872 28.228 107.552 28.1804V29.4846C106.54 29.7223 104.93 29.8242 104.93 28.4385C104.689 28.8233 104.346 29.1341 103.94 29.3367C103.534 29.5392 103.079 29.6257 102.627 29.5865C100.589 29.5865 99.9576 28.228 99.9576 26.4076V22.2914H102.063V26.4076C102.016 27.4197 102.573 27.9427 103.3 27.9427C103.504 27.9473 103.707 27.9087 103.896 27.8295C104.084 27.7502 104.254 27.632 104.394 27.4826C104.534 27.3332 104.64 27.156 104.707 26.9626C104.773 26.7691 104.798 26.5638 104.78 26.36V22.2846L106.872 22.2914Z" fill="black"/>
</g>
</g>
</g>
<defs>
<clipPath id="clip0_244_1699">
<rect width="110.038" height="32.3525" fill="white" transform="translate(0 0.823761)"/>
</clipPath>
<clipPath id="clip1_244_1699">
<rect width="110.038" height="32.3525" fill="white" transform="translate(0 0.823761)"/>
</clipPath>
<clipPath id="clip2_244_1699">
<rect width="110.038" height="32.3457" fill="white" transform="translate(0 0.827026)"/>
</clipPath>
</defs>
</svg>
